<svg width="176" height="32" viewBox="0 0 176 32" fill="none" xmlns="http://www.w3.org/2000/svg">
<g clip-path="url(#clip0_1749_53)">
<path d="M53.2467 11.2389C51.3692 11.2389 50.5304 11.7462 50.5304 12.5267C50.5304 13.2682 51.1296 13.5414 52.1682 13.6584L56.9216 14.2048C59.6379 14.517 61.2357 15.6097 61.2357 18.1853C61.2357 21.6975 58.1599 22.556 53.4464 22.556C48.9725 22.556 45.9767 21.6584 45.8169 17.756H50.131C50.2508 19.5121 51.6489 19.8633 53.6062 19.8633C55.6833 19.8633 56.7618 19.395 56.7618 18.4194C56.7618 17.4828 55.9629 17.2097 54.8445 17.0536L50.5304 16.5072C47.8142 16.156 46.1764 15.1414 46.1764 12.6828C46.1764 9.48282 49.2122 8.5072 53.3665 8.5072C57.4808 8.5072 60.6365 9.44379 60.7563 12.8779H56.4423C56.3624 11.6292 55.0841 11.2389 53.2467 11.2389Z" fill="#0F0F09"/>
<path d="M62.7539 8.74182H66.5487V10.9272H62.7539V8.74182ZM62.7938 12.215H66.5087V22.2052H62.7938V12.215Z" fill="#0F0F09"/>
<path d="M72.141 13.5023H72.2609C73.1796 12.4096 74.8573 11.9413 76.3752 11.9413C78.0529 11.9413 79.3711 12.3315 80.0901 13.5023C81.1686 12.3706 82.8463 11.9413 84.5639 11.9413C86.9207 11.9413 88.7581 13.112 88.7581 15.7266V22.1657H85.0433V16.6242C85.0433 15.3364 84.2444 14.8291 83.0061 14.8291C81.8876 14.8291 80.5295 15.3364 80.5295 17.1705V22.1657H76.8146V16.6242C76.8146 15.3364 76.0157 14.8291 74.7774 14.8291C73.6589 14.8291 72.3008 15.3364 72.3008 17.1705V22.1657H68.5859V12.1754H72.2209V13.5023H72.141Z" fill="#0F0F09"/>
<path d="M94.4302 21.19V25.5607H90.7153V12.2144H94.3503V13.5022H94.4702C95.3489 12.5656 96.6671 11.9802 98.3448 11.9802C101.82 11.9802 104.097 13.8534 104.097 17.2875C104.097 20.7217 101.82 22.5949 98.3448 22.5949C96.6671 22.5949 95.3889 22.0485 94.55 21.19H94.4302ZM97.3062 14.6339C95.3889 14.6339 94.3104 15.6485 94.3104 17.2875C94.3104 18.9266 95.3489 19.9412 97.3062 19.9412C99.2236 19.9412 100.222 19.0046 100.222 17.2875C100.222 15.5705 99.2236 14.6339 97.3062 14.6339Z" fill="#0F0F09"/>
<path d="M105.655 8.81934H109.37V22.2047H105.655V8.81934Z" fill="#0F0F09"/>
<path d="M124.469 17.2096C124.469 17.4437 124.469 17.834 124.429 18.1072H114.842C115.042 19.5511 116 20.2145 117.758 20.2145C119.675 20.2145 120.195 19.434 120.314 19.1218H124.349C124.189 20.7998 122.831 22.595 117.758 22.595C113.244 22.595 110.967 20.6047 110.967 17.2096C110.967 13.8145 113.244 11.8242 117.718 11.8242C122.192 11.8242 124.469 13.8145 124.469 17.2096ZM117.718 14.2047C116.2 14.2047 115.241 14.712 114.922 15.8437H120.514C120.155 14.7511 119.236 14.2047 117.718 14.2047Z" fill="#0F0F09"/>
<path d="M135.014 18.3023H139.088C138.769 20.7609 137.051 22.556 132.258 22.556C127.864 22.556 125.587 20.5658 125.587 17.1706C125.587 13.7755 127.864 11.7853 132.258 11.7853C137.051 11.7853 138.729 13.5804 139.048 15.9999H134.974C134.854 15.2975 134.215 14.478 132.258 14.478C130.42 14.478 129.422 15.4926 129.422 17.1706C129.422 18.8877 130.42 19.8633 132.258 19.8633C134.255 19.9023 134.894 19.0828 135.014 18.3023Z" fill="#0F0F09"/>
<path d="M153.149 22.0876V22.2047H149.514C149.354 22.0486 149.235 21.6584 149.235 21.1901V20.8389C148.236 22.0486 146.478 22.595 144.521 22.595C142.364 22.595 140.207 21.6193 140.207 19.3169C140.207 17.0925 141.565 16.312 143.562 16.1169L147.876 15.6876C148.635 15.6096 148.995 15.4535 148.995 14.9462C148.995 14.4779 148.396 14.1267 146.958 14.1267C145.839 14.1267 144.921 14.4389 144.881 15.1803H140.966C141.086 12.6047 143.802 11.8242 146.958 11.8242C150.433 11.8242 152.91 12.4876 152.91 14.9462V20.5657C152.87 21.1511 152.87 21.7754 153.149 22.0876ZM149.115 17.4437C148.875 17.5998 148.476 17.6779 148.116 17.7169L145.4 18.1072C144.561 18.2242 144.042 18.5364 144.042 19.2779C144.042 20.0974 144.721 20.3315 145.719 20.3315C147.078 20.3315 149.115 19.7072 149.115 17.834V17.4437Z" fill="#0F0F09"/>
<path d="M162.816 15.1804C162.736 14.3609 161.737 14.0877 160.379 14.0877C158.981 14.0877 158.422 14.3999 158.422 14.8682C158.422 15.2975 158.702 15.4926 159.58 15.5706L163.335 15.9999C165.852 16.2731 167.17 16.9365 167.17 19.1999C167.17 21.8926 164.813 22.595 160.659 22.595C156.904 22.595 154.268 21.9316 154.148 19.0048H158.182C158.262 19.9804 159.101 20.2926 160.739 20.2926C162.496 20.2926 163.056 19.9414 163.056 19.395C163.056 18.8877 162.696 18.7316 161.817 18.6145L158.342 18.1853C155.906 17.8731 154.468 17.2487 154.468 15.1414C154.468 12.6048 157.024 11.9023 160.419 11.9023C163.934 11.9023 166.651 12.6828 166.731 15.2584L162.816 15.1804Z" fill="#0F0F09"/>
<path d="M174.2 19.434C174.56 19.434 175.159 19.4341 175.638 19.356V22.1658C175.199 22.2438 174.2 22.3219 173.361 22.3219C170.246 22.3219 169.247 21.5023 169.247 19.2389V14.4389H167.529V12.2145H169.247V9.52185H172.962V12.2145H175.678V14.4389H172.962V18.5365C172.962 19.2389 173.441 19.434 174.2 19.434Z" fill="#0F0F09"/>
<path fill-rule="evenodd" clip-rule="evenodd" d="M0 0V32H32.7548V0H0ZM30.5978 29.8927H2.19697V2.14634H30.5978V29.8927Z" fill="#0F0F09"/>
<path fill-rule="evenodd" clip-rule="evenodd" d="M6.55127 6.3999V25.5999H26.2441L6.55127 6.3999Z" fill="#0F0F09"/>
<path d="M26.2254 18.5166L13.8696 6.41516L12.3181 7.93475L24.6739 20.0362L26.2254 18.5166Z" fill="#0F0F09"/>
<path d="M26.2526 12.4553L20.0747 6.40454L18.5232 7.92413L24.7011 13.9749L26.2526 12.4553Z" fill="#0F0F09"/>
</g>
<defs>
<clipPath id="clip0_1749_53">
<rect width="176" height="32" fill="white"/>
</clipPath>
</defs>
</svg>
