<?xml version="1.0" standalone="no"?>
<!DOCTYPE svg PUBLIC "-//W3C//DTD SVG 20010904//EN"
 "http://www.w3.org/TR/2001/REC-SVG-20010904/DTD/svg10.dtd">
<svg version="1.0" xmlns="http://www.w3.org/2000/svg"
 width="422.000000pt" height="422.000000pt" viewBox="0 0 422.000000 422.000000"
 preserveAspectRatio="xMidYMid meet">

<g transform="translate(0.000000,422.000000) scale(0.100000,-0.100000)"
fill="#000000" stroke="none">
<path d="M1940 4061 c-185 -61 -285 -259 -219 -435 25 -69 96 -149 163 -184
45 -24 62 -27 146 -27 84 0 101 3 147 28 66 34 116 84 150 150 25 46 28 63 28
147 0 81 -4 102 -24 145 -32 63 -93 125 -156 155 -53 26 -185 38 -235 21z
m130 -104 c0 -8 -9 -40 -20 -72 -26 -75 -26 -76 11 -68 29 6 31 4 24 -18 -10
-32 -20 -42 -57 -55 -23 -7 -35 -20 -44 -46 -15 -43 -15 -43 114 -54 50 -4 82
-11 82 -18 -1 -6 -9 -25 -18 -41 l-17 -31 -142 16 c-78 8 -144 18 -147 21 -4
3 1 25 9 49 20 57 19 61 -11 49 -35 -13 -38 -8 -21 34 11 26 23 37 45 42 27 6
33 14 53 73 44 132 44 132 94 132 31 0 45 -4 45 -13z"/>
<path d="M2986 3640 c-21 -6 -65 -24 -98 -42 -235 -125 -279 -447 -86 -635
151 -147 395 -147 546 0 203 198 146 527 -113 648 -71 34 -179 46 -249 29z
m161 -175 c-38 -112 -32 -108 -161 -119 -61 -5 -68 -4 -55 9 34 33 244 213
246 211 2 -1 -12 -47 -30 -101z m86 -74 c15 -85 25 -156 24 -158 -2 -1 -33 25
-70 58 l-66 60 37 104 c20 58 39 101 43 97 3 -4 18 -76 32 -161z m-159 -128
c-15 -43 -31 -82 -35 -87 -4 -4 -33 26 -64 69 -31 42 -55 79 -52 81 5 5 169
22 175 18 2 -1 -9 -37 -24 -81z m112 10 c35 -32 64 -60 64 -63 0 -8 -180 -53
-186 -47 -7 6 44 167 53 167 2 0 33 -26 69 -57z m-223 -84 l58 -80 -23 -70
c-12 -38 -25 -69 -28 -69 -4 0 -12 21 -18 48 -6 26 -22 93 -35 150 -14 56 -22
102 -18 102 3 -1 32 -37 64 -81z m273 -37 c-10 -16 -246 -193 -246 -184 0 4 9
36 21 70 21 61 21 62 72 76 45 13 146 42 155 45 2 1 1 -3 -2 -7z"/>
<path d="M1174 3156 c-149 -34 -256 -132 -304 -279 -28 -88 -7 -240 45 -319
l25 -38 -84 0 -84 0 -21 53 c-49 121 -51 260 -7 381 l24 68 -156 -4 c-144 -3
-161 -6 -200 -28 -28 -16 -54 -42 -70 -70 l-27 -45 -3 -1373 -2 -1372 1720 0
1720 0 0 190 0 190 -805 0 -805 0 0 140 0 140 -342 0 -343 0 0 85 0 85 428 0
427 0 0 -140 0 -140 720 0 720 0 0 105 0 105 130 0 130 0 0 380 0 380 -130 0
-130 0 0 120 0 120 -720 0 -720 0 0 -140 0 -140 -428 0 -427 0 0 85 0 85 343
0 342 0 0 140 0 140 803 0 804 0 6 339 c4 187 4 403 0 480 l-6 141 -87 0 -87
0 -42 -64 c-102 -158 -295 -255 -481 -243 -187 12 -386 136 -451 280 l-12 27
-424 0 c-232 0 -423 -1 -423 -2 0 -2 10 -28 22 -58 18 -46 22 -75 23 -175 0
-108 -3 -128 -29 -197 l-28 -78 -84 0 -84 0 30 48 c179 292 -85 672 -416 598z
m95 -129 c8 -24 22 -38 49 -50 47 -21 72 -62 72 -119 0 -32 6 -50 20 -63 39
-36 44 -119 9 -161 -10 -13 -8 -39 7 -77 3 -10 -5 -18 -27 -26 -45 -15 -47
-15 -54 19 -7 30 -19 37 -43 21 -9 -5 -11 -17 -6 -34 6 -26 4 -27 -31 -27 -23
0 -42 6 -49 16 -9 12 -17 13 -39 5 -40 -16 -43 -15 -54 24 -10 32 -9 36 10 46
12 7 24 13 25 15 2 1 -13 54 -34 117 -37 112 -38 115 -62 106 -31 -12 -29 -13
-41 22 -16 45 -15 46 25 59 32 11 35 15 29 38 -4 15 -7 31 -8 36 -1 4 14 14
33 21 34 12 35 11 46 -18 12 -34 22 -41 43 -28 11 7 11 15 3 39 -10 29 -9 32
16 41 43 15 50 13 61 -22z m64 -1257 c36 -41 37 -96 1 -139 -76 -90 -218 -12
-184 101 24 81 126 102 183 38z m2295 -360 c72 -44 97 -157 50 -227 -26 -38
-90 -73 -134 -73 -78 1 -147 63 -159 145 -8 51 26 121 74 152 44 30 122 31
169 3z m-2762 -64 c27 -27 34 -42 34 -74 0 -115 -162 -151 -206 -45 -32 74 19
153 98 153 32 0 47 -7 74 -34z m2214 -76 l0 -80 -1042 0 -1043 0 0 80 0 80
1043 0 1042 0 0 -80z m-1769 -300 c24 -13 49 -61 49 -94 0 -94 -111 -141 -182
-77 -28 25 -33 36 -33 75 0 36 6 51 29 75 24 25 38 31 74 31 24 0 52 -5 63
-10z"/>
<path d="M1218 2892 c-52 -19 -53 -19 -43 -63 6 -29 10 -31 38 -25 48 10 102
39 105 57 3 19 -23 49 -41 48 -7 0 -33 -8 -59 -17z"/>
<path d="M1259 2732 c-46 -17 -46 -17 -35 -49 6 -17 14 -34 17 -37 10 -10 112
29 123 47 15 23 -4 51 -35 54 -13 1 -45 -6 -70 -15z"/>
</g>
</svg>
